<svg width="341" height="150" viewBox="0 0 341 150" fill="none" xmlns="http://www.w3.org/2000/svg">
<path d="M12.25 42.9062V54.25H5.40625V68.1719H12.25V91.5625C12.25 101.781 18.0156 106 32.6406 106C36.2969 106 38.7344 105.672 40.5625 105.297V91.9844C39.4375 92.1719 38.7344 92.2188 37.2812 92.2188C33.3438 92.2188 31.4688 90.5312 31.4688 87.2969V68.1719H40.5625V54.25H31.4688V42.9062H12.25ZM54.7262 106.75C60.7262 106.75 67.0075 104.125 69.7262 99.0625H70.1012V106H88.8512V70.6094C88.8512 60.1094 79.2419 52.9375 64.8981 52.9375C49.8044 52.9375 40.4294 59.9219 39.9606 70.9844H57.1169C57.3981 68.3594 59.9294 66.2031 63.8669 66.2031C67.4762 66.2031 70.1012 68.0781 70.1012 71.5469V74.0781L58.7575 74.7812C44.9294 75.625 37.2887 81.0156 37.2887 90.9531C37.2887 100.281 45.3044 106.75 54.7262 106.75ZM61.8981 93.9062C58.5231 93.9062 56.2262 92.2656 56.2262 89.4531C56.2262 86.9219 58.2887 85.1875 61.945 84.9062L70.1012 84.3438V87.7188C70.1012 91.5156 66.1637 93.9062 61.8981 93.9062ZM87.5462 70.3281C87.5462 78.3438 92.9369 83.9219 103.202 85.7969L112.577 87.5312C116.937 88.3281 118.437 89.3594 118.437 91.2344C118.437 93.3906 116.14 94.75 112.437 94.75C108.124 94.75 105.593 92.7812 104.937 89.5469H86.3744C87.265 100.141 96.1244 107.312 112.437 107.312C127.437 107.312 137.468 100.281 137.468 89.0312C137.468 81.2031 132.452 76.8906 121.249 74.8281L111.874 73.0938C107.187 72.2031 105.921 71.0781 105.921 69.25C105.921 66.9062 108.265 65.5 111.734 65.5C115.859 65.5 118.249 67.8438 118.484 70.9844H135.921C135.687 59.9219 126.827 52.9375 111.734 52.9375C96.6869 52.9375 87.5462 59.5469 87.5462 70.3281ZM139.585 42.9062V54.25H132.741V68.1719H139.585V91.5625C139.585 101.781 145.351 106 159.976 106C163.632 106 166.069 105.672 167.897 105.297V91.9844C166.772 92.1719 166.069 92.2188 164.616 92.2188C160.679 92.2188 158.804 90.5312 158.804 87.2969V68.1719H167.897V54.25H158.804V42.9062H139.585ZM200.717 89.2188C199.592 92.3125 196.452 94.1406 192.561 94.1406C187.405 94.1406 183.749 90.4844 183.749 85.4219V84.2031H218.061V79C218.061 63.1562 207.702 52.9375 191.671 52.9375C175.405 52.9375 165.233 63.4844 165.233 80.4062C165.233 97.2344 175.311 107.312 192.28 107.312C206.483 107.312 216.233 100.375 217.827 89.2188H200.717ZM192.092 66.1562C196.592 66.1562 199.827 69.1562 200.155 73.7969H184.03C184.405 69.3438 187.733 66.1562 192.092 66.1562Z" fill="#FF51CE"/>
<path d="M216.406 104.531C217.844 104.031 219.031 103.375 219.969 102.562C220.906 101.75 221.625 100.938 222.125 100.125C222.75 99.1875 223.156 98.2188 223.344 97.2188C224.719 90.8438 225.406 84.7812 225.406 79.0312C225.406 73.2188 224.969 68.25 224.094 64.125C223.844 62.8125 223.375 61.5938 222.688 60.4688C222.125 59.5312 221.344 58.6562 220.344 57.8438C219.344 56.9688 218.062 56.4062 216.5 56.1562L216.406 54.6562C217.656 54.7812 218.812 54.875 219.875 54.9375C221 54.9375 221.969 54.9375 222.781 54.9375H225.406C226.156 55 226.906 55.0312 227.656 55.0312C228.344 55.0938 229.031 55.125 229.719 55.125C230.469 55.125 231.188 55.1875 231.875 55.3125C231.688 57.5625 231.531 59.875 231.406 62.25C231.281 64.5625 231.188 66.6562 231.125 68.5312C231 70.7188 230.938 72.8438 230.938 74.9062C230.812 77.2188 230.719 79.75 230.656 82.5C230.594 85.1875 230.625 87.75 230.75 90.1875C230.875 92.625 231.094 94.7812 231.406 96.6562C231.719 98.4688 232.219 99.6562 232.906 100.219C233.281 100.469 233.781 100.719 234.406 100.969C234.906 101.219 235.562 101.469 236.375 101.719C237.25 101.969 238.312 102.219 239.562 102.469L239.656 104.062C238.406 104 237.188 104 236 104.062C234.875 104.062 233.875 104.062 233 104.062C231.938 104.125 230.938 104.156 230 104.156C228.688 104.219 227.281 104.344 225.781 104.531C224.531 104.656 223.125 104.812 221.562 105C220 105.188 218.5 105.406 217.062 105.656L216.406 104.531ZM226.062 48.375C224.125 48.5 222.625 48.0625 221.562 47.0625C220.5 46 219.906 44.8125 219.781 43.5C219.656 42.1875 220 40.9688 220.812 39.8438C221.688 38.6562 223.062 37.9375 224.938 37.6875C226.875 37.4375 228.406 37.8438 229.531 38.9062C230.719 39.9688 231.406 41.1875 231.594 42.5625C231.781 43.875 231.438 45.1562 230.562 46.4062C229.688 47.5938 228.188 48.25 226.062 48.375ZM249.222 69.6562C249.972 67.3438 251.035 65.0312 252.41 62.7188C253.785 60.4062 255.347 58.3438 257.097 56.5312C258.91 54.6562 260.847 53.1875 262.91 52.125C265.035 51.0625 267.222 50.5938 269.472 50.7188C271.535 50.9062 273.222 51.8125 274.535 53.4375C275.91 55.0625 277.004 57 277.816 59.25C278.629 61.4375 279.16 63.7188 279.41 66.0938C279.722 68.4062 279.847 70.3438 279.785 71.9062C279.66 73.8438 279.254 75.7188 278.566 77.5312C277.941 79.2812 277.222 81.0625 276.41 82.875C275.66 84.625 274.941 86.4375 274.254 88.3125C273.566 90.1875 273.16 92.1562 273.035 94.2188C272.91 96.2812 273.129 98.25 273.691 100.125C274.316 101.938 275.191 103.344 276.316 104.344C277.441 105.344 278.754 105.75 280.254 105.562C281.816 105.438 283.41 104.375 285.035 102.375L286.254 103.406C285.629 104.469 284.597 105.5 283.16 106.5C281.722 107.562 280.035 108.094 278.097 108.094C276.785 108.094 275.472 107.812 274.16 107.25C272.91 106.75 271.754 105.938 270.691 104.812C269.691 103.625 268.847 102.125 268.16 100.312C267.535 98.5 267.191 96.2812 267.129 93.6562C267.129 91.4688 267.41 89.4375 267.972 87.5625C268.535 85.6875 269.129 83.8125 269.754 81.9375C270.441 80.0625 271.035 78.125 271.535 76.125C272.097 74.0625 272.347 71.7812 272.285 69.2812C272.16 66.9688 271.785 65.0938 271.16 63.6562C270.597 62.1562 269.879 61.0312 269.004 60.2812C268.191 59.4688 267.285 58.9688 266.285 58.7812C265.347 58.5312 264.472 58.4688 263.66 58.5938C261.972 58.9062 260.254 59.875 258.504 61.5C256.754 63.0625 255.16 65.0625 253.722 67.5C252.347 69.875 251.222 72.5938 250.347 75.6562C249.472 78.7188 249.004 81.8438 248.941 85.0312V84.8438C248.941 86.4062 248.91 87.7812 248.847 88.9688C248.785 90.1562 248.816 91.1562 248.941 91.9688C248.941 93.7812 249.097 95.2188 249.41 96.2812C249.785 97.2812 250.191 98.0625 250.629 98.625C251.066 99.1875 251.535 99.5938 252.035 99.8438C252.597 100.031 253.066 100.156 253.441 100.219L253.347 101.906C252.472 101.719 251.347 101.625 249.972 101.625C248.66 101.562 247.222 101.625 245.66 101.812C244.097 102 242.472 102.344 240.785 102.844C239.16 103.344 237.66 104.031 236.285 104.906L235.629 103.594C236.566 102.844 237.379 102.188 238.066 101.625C238.816 101 239.441 100.219 239.941 99.2812C240.504 98.3438 240.972 97.125 241.347 95.625C241.722 94.125 242.004 92.1562 242.191 89.7188C242.566 84.7812 242.816 79.9375 242.941 75.1875C243.066 70.375 242.941 65.9062 242.566 61.7812C242.441 60.4688 242.097 59.4688 241.535 58.7812C241.035 58.0938 240.41 57.625 239.66 57.375C238.91 57.0625 238.129 56.9062 237.316 56.9062C236.504 56.9062 235.722 56.9375 234.972 57L234.879 55.4062C236.254 55.2812 237.66 55.125 239.097 54.9375C240.597 54.75 242.035 54.5625 243.41 54.375C244.785 54.1875 246.004 54 247.066 53.8125C248.191 53.5625 249.066 53.2812 249.691 52.9688C249.566 54.9688 249.472 56.9688 249.41 58.9688C249.41 60.9062 249.379 62.6875 249.316 64.3125C249.254 66.1875 249.222 67.9688 249.222 69.6562ZM327.226 128.719C325.039 128.719 322.882 128.375 320.757 127.688C318.632 127 316.789 125.844 315.226 124.219C313.664 122.656 312.507 120.531 311.757 117.844C311.007 115.219 310.914 111.938 311.476 108C311.914 105 312.257 102.062 312.507 99.1875C312.82 96.25 312.914 93.5625 312.789 91.125C312.664 88.625 312.226 86.4375 311.476 84.5625C310.726 82.625 309.507 81.125 307.82 80.0625C306.257 79 304.226 78.375 301.726 78.1875C299.226 78 296.195 78.4375 292.632 79.5C292.757 82.1875 292.914 84.7188 293.101 87.0938C293.351 89.4688 293.632 91.5938 293.945 93.4688C294.132 95.3438 294.476 96.9688 294.976 98.3438C295.351 99.5312 295.882 100.594 296.57 101.531C297.257 102.469 298.132 102.812 299.195 102.562L298.539 104.906C297.289 104.469 295.851 104.156 294.226 103.969C292.664 103.781 290.976 103.75 289.164 103.875C287.351 104 285.476 104.281 283.539 104.719C281.664 105.156 279.851 105.812 278.101 106.688L277.632 105.094C278.57 104.406 279.414 103.781 280.164 103.219C280.914 102.656 281.57 101.938 282.132 101.062C282.757 100.188 283.289 99.0625 283.726 97.6875C284.164 96.3125 284.539 94.4688 284.851 92.1562C285.164 89.8438 285.539 86.8438 285.976 83.1562C286.476 79.4062 286.914 75.375 287.289 71.0625C287.664 66.75 287.914 62.3125 288.039 57.75C288.164 53.1875 288.039 48.9375 287.664 45C287.289 42.0625 286.726 39.4062 285.976 37.0312C285.664 36.0312 285.257 35.0625 284.757 34.125C284.32 33.125 283.789 32.25 283.164 31.5C282.539 30.6875 281.82 30.0313 281.007 29.5312C280.257 29.0312 279.414 28.75 278.476 28.6875V27.2812C279.664 27.4688 281.007 27.6875 282.507 27.9375C284.07 28.125 285.82 28.25 287.757 28.3125C289.757 28.375 291.976 28.2812 294.414 28.0312C296.914 27.7187 299.695 27.125 302.757 26.25V28.125C301.632 28.75 300.601 29.4062 299.664 30.0938C298.726 30.7187 297.851 31.625 297.039 32.8125C296.289 34 295.632 35.5625 295.07 37.5C294.507 39.4375 294.101 42 293.851 45.1875C293.539 48.1875 293.195 51.6562 292.82 55.5938C292.507 59.5312 292.351 63.5938 292.351 67.7812C292.351 69.2812 292.351 70.8125 292.351 72.375C292.351 73.875 292.414 75.375 292.539 76.875C295.539 75.8125 298.226 74.4375 300.601 72.75C302.976 71 304.976 69.2188 306.601 67.4062C308.226 65.5312 309.476 63.7188 310.351 61.9688C311.226 60.2188 311.664 58.7188 311.664 57.4688C311.539 56.5312 311.32 55.6875 311.007 54.9375C310.695 54.3125 310.226 53.75 309.601 53.25C308.976 52.6875 308.132 52.375 307.07 52.3125L307.351 49.9688C311.226 50.4688 314.945 50.6875 318.507 50.625C322.07 50.5 325.632 49.6562 329.195 48.0938L329.57 49.9688C328.632 50.4062 327.789 50.8438 327.039 51.2812C326.289 51.6562 325.57 52.125 324.882 52.6875C324.257 53.25 323.632 54 323.007 54.9375C322.382 55.8125 321.695 56.9688 320.945 58.4062C320.382 59.5938 319.632 60.9688 318.695 62.5312C317.757 64.0938 316.632 65.6562 315.32 67.2188C314.07 68.7188 312.601 70.1562 310.914 71.5312C309.289 72.8438 307.507 73.9062 305.57 74.7188C310.57 74.5938 314.476 75.9062 317.289 78.6562C320.101 81.3438 321.695 85.8125 322.07 92.0625C322.195 95.25 321.914 98.4688 321.226 101.719C320.539 104.906 319.945 107.906 319.445 110.719C318.945 113.594 318.757 116.156 318.882 118.406C319.007 120.719 319.945 122.531 321.695 123.844C323.382 125.156 325.039 125.938 326.664 126.188C328.351 126.5 329.914 126.375 331.351 125.812C332.789 125.312 334.039 124.438 335.101 123.188C336.226 121.938 337.101 120.469 337.726 118.781C338.289 117.094 338.539 115.625 338.476 114.375C338.414 113.188 338.132 112.188 337.632 111.375C337.132 110.625 336.476 110.062 335.664 109.688C334.914 109.312 334.101 109.125 333.226 109.125C331.476 109.125 329.914 109.781 328.539 111.094C327.164 112.406 326.414 114.125 326.289 116.25C326.226 117 326.32 117.625 326.57 118.125C326.82 118.625 327.132 119 327.507 119.25C327.945 119.562 328.382 119.781 328.82 119.906C329.32 120.031 329.789 120.031 330.226 119.906C331.039 119.781 331.851 119.312 332.664 118.5C333.539 117.688 333.945 116.719 333.882 115.594C333.507 115.844 333.039 116.062 332.476 116.25C331.914 116.5 331.382 116.625 330.882 116.625C330.445 116.625 330.039 116.469 329.664 116.156C329.351 115.906 329.195 115.406 329.195 114.656C329.195 113.781 329.507 113.094 330.132 112.594C330.82 112.156 331.57 111.938 332.382 111.938C333.195 111.938 333.945 112.188 334.632 112.688C335.32 113.25 335.664 114.062 335.664 115.125C335.726 117.188 335.039 118.906 333.601 120.281C332.226 121.719 330.601 122.438 328.726 122.438C327.351 122.438 326.257 122.031 325.445 121.219C324.695 120.469 324.164 119.5 323.851 118.312C323.601 117.188 323.601 115.938 323.851 114.562C324.164 113.188 324.726 111.906 325.539 110.719C326.351 109.594 327.414 108.625 328.726 107.812C330.101 107.062 331.726 106.688 333.601 106.688C334.914 106.688 336.007 106.938 336.882 107.438C337.757 107.938 338.445 108.562 338.945 109.312C339.507 110.125 339.914 111 340.164 111.938C340.414 112.875 340.539 113.812 340.539 114.75C340.601 116.562 340.351 118.281 339.789 119.906C339.226 121.594 338.382 123.094 337.257 124.406C336.132 125.719 334.726 126.75 333.039 127.5C331.351 128.312 329.414 128.719 327.226 128.719Z" fill="#FF51CE"/>
<path d="M8.25 42.9062V54.25H1.40625V68.1719H8.25V91.5625C8.25 101.781 14.0156 106 28.6406 106C32.2969 106 34.7344 105.672 36.5625 105.297V91.9844C35.4375 92.1719 34.7344 92.2188 33.2812 92.2188C29.3438 92.2188 27.4688 90.5312 27.4688 87.2969V68.1719H36.5625V54.25H27.4688V42.9062H8.25ZM50.7262 106.75C56.7262 106.75 63.0075 104.125 65.7262 99.0625H66.1012V106H84.8512V70.6094C84.8512 60.1094 75.2419 52.9375 60.8981 52.9375C45.8044 52.9375 36.4294 59.9219 35.9606 70.9844H53.1169C53.3981 68.3594 55.9294 66.2031 59.8669 66.2031C63.4762 66.2031 66.1012 68.0781 66.1012 71.5469V74.0781L54.7575 74.7812C40.9294 75.625 33.2887 81.0156 33.2887 90.9531C33.2887 100.281 41.3044 106.75 50.7262 106.75ZM57.8981 93.9062C54.5231 93.9062 52.2262 92.2656 52.2262 89.4531C52.2262 86.9219 54.2887 85.1875 57.945 84.9062L66.1012 84.3438V87.7188C66.1012 91.5156 62.1637 93.9062 57.8981 93.9062ZM83.5462 70.3281C83.5462 78.3438 88.9369 83.9219 99.2025 85.7969L108.577 87.5312C112.937 88.3281 114.437 89.3594 114.437 91.2344C114.437 93.3906 112.14 94.75 108.437 94.75C104.124 94.75 101.593 92.7812 100.937 89.5469H82.3744C83.265 100.141 92.1244 107.312 108.437 107.312C123.437 107.312 133.468 100.281 133.468 89.0312C133.468 81.2031 128.452 76.8906 117.249 74.8281L107.874 73.0938C103.187 72.2031 101.921 71.0781 101.921 69.25C101.921 66.9062 104.265 65.5 107.734 65.5C111.859 65.5 114.249 67.8438 114.484 70.9844H131.921C131.687 59.9219 122.827 52.9375 107.734 52.9375C92.6869 52.9375 83.5462 59.5469 83.5462 70.3281ZM135.585 42.9062V54.25H128.741V68.1719H135.585V91.5625C135.585 101.781 141.351 106 155.976 106C159.632 106 162.069 105.672 163.897 105.297V91.9844C162.772 92.1719 162.069 92.2188 160.616 92.2188C156.679 92.2188 154.804 90.5312 154.804 87.2969V68.1719H163.897V54.25H154.804V42.9062H135.585ZM196.717 89.2188C195.592 92.3125 192.452 94.1406 188.561 94.1406C183.405 94.1406 179.749 90.4844 179.749 85.4219V84.2031H214.061V79C214.061 63.1562 203.702 52.9375 187.671 52.9375C171.405 52.9375 161.233 63.4844 161.233 80.4062C161.233 97.2344 171.311 107.312 188.28 107.312C202.483 107.312 212.233 100.375 213.827 89.2188H196.717ZM188.092 66.1562C192.592 66.1562 195.827 69.1562 196.155 73.7969H180.03C180.405 69.3438 183.733 66.1562 188.092 66.1562Z" fill="#00FFC2"/>
<path d="M212.406 104.531C213.844 104.031 215.031 103.375 215.969 102.562C216.906 101.75 217.625 100.938 218.125 100.125C218.75 99.1875 219.156 98.2188 219.344 97.2188C220.719 90.8438 221.406 84.7812 221.406 79.0312C221.406 73.2188 220.969 68.25 220.094 64.125C219.844 62.8125 219.375 61.5938 218.688 60.4688C218.125 59.5312 217.344 58.6562 216.344 57.8438C215.344 56.9688 214.062 56.4062 212.5 56.1562L212.406 54.6562C213.656 54.7812 214.812 54.875 215.875 54.9375C217 54.9375 217.969 54.9375 218.781 54.9375H221.406C222.156 55 222.906 55.0312 223.656 55.0312C224.344 55.0938 225.031 55.125 225.719 55.125C226.469 55.125 227.188 55.1875 227.875 55.3125C227.688 57.5625 227.531 59.875 227.406 62.25C227.281 64.5625 227.188 66.6562 227.125 68.5312C227 70.7188 226.938 72.8438 226.938 74.9062C226.812 77.2188 226.719 79.75 226.656 82.5C226.594 85.1875 226.625 87.75 226.75 90.1875C226.875 92.625 227.094 94.7812 227.406 96.6562C227.719 98.4688 228.219 99.6562 228.906 100.219C229.281 100.469 229.781 100.719 230.406 100.969C230.906 101.219 231.562 101.469 232.375 101.719C233.25 101.969 234.312 102.219 235.562 102.469L235.656 104.062C234.406 104 233.188 104 232 104.062C230.875 104.062 229.875 104.062 229 104.062C227.938 104.125 226.938 104.156 226 104.156C224.688 104.219 223.281 104.344 221.781 104.531C220.531 104.656 219.125 104.812 217.562 105C216 105.188 214.5 105.406 213.062 105.656L212.406 104.531ZM222.062 48.375C220.125 48.5 218.625 48.0625 217.562 47.0625C216.5 46 215.906 44.8125 215.781 43.5C215.656 42.1875 216 40.9688 216.812 39.8438C217.688 38.6562 219.062 37.9375 220.938 37.6875C222.875 37.4375 224.406 37.8438 225.531 38.9062C226.719 39.9688 227.406 41.1875 227.594 42.5625C227.781 43.875 227.438 45.1562 226.562 46.4062C225.688 47.5938 224.188 48.25 222.062 48.375ZM245.222 69.6562C245.972 67.3438 247.035 65.0312 248.41 62.7188C249.785 60.4062 251.347 58.3438 253.097 56.5312C254.91 54.6562 256.847 53.1875 258.91 52.125C261.035 51.0625 263.222 50.5938 265.472 50.7188C267.535 50.9062 269.222 51.8125 270.535 53.4375C271.91 55.0625 273.004 57 273.816 59.25C274.629 61.4375 275.16 63.7188 275.41 66.0938C275.722 68.4062 275.847 70.3438 275.785 71.9062C275.66 73.8438 275.254 75.7188 274.566 77.5312C273.941 79.2812 273.222 81.0625 272.41 82.875C271.66 84.625 270.941 86.4375 270.254 88.3125C269.566 90.1875 269.16 92.1562 269.035 94.2188C268.91 96.2812 269.129 98.25 269.691 100.125C270.316 101.938 271.191 103.344 272.316 104.344C273.441 105.344 274.754 105.75 276.254 105.562C277.816 105.438 279.41 104.375 281.035 102.375L282.254 103.406C281.629 104.469 280.597 105.5 279.16 106.5C277.722 107.562 276.035 108.094 274.097 108.094C272.785 108.094 271.472 107.812 270.16 107.25C268.91 106.75 267.754 105.938 266.691 104.812C265.691 103.625 264.847 102.125 264.16 100.312C263.535 98.5 263.191 96.2812 263.129 93.6562C263.129 91.4688 263.41 89.4375 263.972 87.5625C264.535 85.6875 265.129 83.8125 265.754 81.9375C266.441 80.0625 267.035 78.125 267.535 76.125C268.097 74.0625 268.347 71.7812 268.285 69.2812C268.16 66.9688 267.785 65.0938 267.16 63.6562C266.597 62.1562 265.879 61.0312 265.004 60.2812C264.191 59.4688 263.285 58.9688 262.285 58.7812C261.347 58.5312 260.472 58.4688 259.66 58.5938C257.972 58.9062 256.254 59.875 254.504 61.5C252.754 63.0625 251.16 65.0625 249.722 67.5C248.347 69.875 247.222 72.5938 246.347 75.6562C245.472 78.7188 245.004 81.8438 244.941 85.0312V84.8438C244.941 86.4062 244.91 87.7812 244.847 88.9688C244.785 90.1562 244.816 91.1562 244.941 91.9688C244.941 93.7812 245.097 95.2188 245.41 96.2812C245.785 97.2812 246.191 98.0625 246.629 98.625C247.066 99.1875 247.535 99.5938 248.035 99.8438C248.597 100.031 249.066 100.156 249.441 100.219L249.347 101.906C248.472 101.719 247.347 101.625 245.972 101.625C244.66 101.562 243.222 101.625 241.66 101.812C240.097 102 238.472 102.344 236.785 102.844C235.16 103.344 233.66 104.031 232.285 104.906L231.629 103.594C232.566 102.844 233.379 102.188 234.066 101.625C234.816 101 235.441 100.219 235.941 99.2812C236.504 98.3438 236.972 97.125 237.347 95.625C237.722 94.125 238.004 92.1562 238.191 89.7188C238.566 84.7812 238.816 79.9375 238.941 75.1875C239.066 70.375 238.941 65.9062 238.566 61.7812C238.441 60.4688 238.097 59.4688 237.535 58.7812C237.035 58.0938 236.41 57.625 235.66 57.375C234.91 57.0625 234.129 56.9062 233.316 56.9062C232.504 56.9062 231.722 56.9375 230.972 57L230.879 55.4062C232.254 55.2812 233.66 55.125 235.097 54.9375C236.597 54.75 238.035 54.5625 239.41 54.375C240.785 54.1875 242.004 54 243.066 53.8125C244.191 53.5625 245.066 53.2812 245.691 52.9688C245.566 54.9688 245.472 56.9688 245.41 58.9688C245.41 60.9062 245.379 62.6875 245.316 64.3125C245.254 66.1875 245.222 67.9688 245.222 69.6562ZM323.226 128.719C321.039 128.719 318.882 128.375 316.757 127.688C314.632 127 312.789 125.844 311.226 124.219C309.664 122.656 308.507 120.531 307.757 117.844C307.007 115.219 306.914 111.938 307.476 108C307.914 105 308.257 102.062 308.507 99.1875C308.82 96.25 308.914 93.5625 308.789 91.125C308.664 88.625 308.226 86.4375 307.476 84.5625C306.726 82.625 305.507 81.125 303.82 80.0625C302.257 79 300.226 78.375 297.726 78.1875C295.226 78 292.195 78.4375 288.632 79.5C288.757 82.1875 288.914 84.7188 289.101 87.0938C289.351 89.4688 289.632 91.5938 289.945 93.4688C290.132 95.3438 290.476 96.9688 290.976 98.3438C291.351 99.5312 291.882 100.594 292.57 101.531C293.257 102.469 294.132 102.812 295.195 102.562L294.539 104.906C293.289 104.469 291.851 104.156 290.226 103.969C288.664 103.781 286.976 103.75 285.164 103.875C283.351 104 281.476 104.281 279.539 104.719C277.664 105.156 275.851 105.812 274.101 106.688L273.632 105.094C274.57 104.406 275.414 103.781 276.164 103.219C276.914 102.656 277.57 101.938 278.132 101.062C278.757 100.188 279.289 99.0625 279.726 97.6875C280.164 96.3125 280.539 94.4688 280.851 92.1562C281.164 89.8438 281.539 86.8438 281.976 83.1562C282.476 79.4062 282.914 75.375 283.289 71.0625C283.664 66.75 283.914 62.3125 284.039 57.75C284.164 53.1875 284.039 48.9375 283.664 45C283.289 42.0625 282.726 39.4062 281.976 37.0312C281.664 36.0312 281.257 35.0625 280.757 34.125C280.32 33.125 279.789 32.25 279.164 31.5C278.539 30.6875 277.82 30.0313 277.007 29.5312C276.257 29.0312 275.414 28.75 274.476 28.6875V27.2812C275.664 27.4688 277.007 27.6875 278.507 27.9375C280.07 28.125 281.82 28.25 283.757 28.3125C285.757 28.375 287.976 28.2812 290.414 28.0312C292.914 27.7187 295.695 27.125 298.757 26.25V28.125C297.632 28.75 296.601 29.4062 295.664 30.0938C294.726 30.7187 293.851 31.625 293.039 32.8125C292.289 34 291.632 35.5625 291.07 37.5C290.507 39.4375 290.101 42 289.851 45.1875C289.539 48.1875 289.195 51.6562 288.82 55.5938C288.507 59.5312 288.351 63.5938 288.351 67.7812C288.351 69.2812 288.351 70.8125 288.351 72.375C288.351 73.875 288.414 75.375 288.539 76.875C291.539 75.8125 294.226 74.4375 296.601 72.75C298.976 71 300.976 69.2188 302.601 67.4062C304.226 65.5312 305.476 63.7188 306.351 61.9688C307.226 60.2188 307.664 58.7188 307.664 57.4688C307.539 56.5312 307.32 55.6875 307.007 54.9375C306.695 54.3125 306.226 53.75 305.601 53.25C304.976 52.6875 304.132 52.375 303.07 52.3125L303.351 49.9688C307.226 50.4688 310.945 50.6875 314.507 50.625C318.07 50.5 321.632 49.6562 325.195 48.0938L325.57 49.9688C324.632 50.4062 323.789 50.8438 323.039 51.2812C322.289 51.6562 321.57 52.125 320.882 52.6875C320.257 53.25 319.632 54 319.007 54.9375C318.382 55.8125 317.695 56.9688 316.945 58.4062C316.382 59.5938 315.632 60.9688 314.695 62.5312C313.757 64.0938 312.632 65.6562 311.32 67.2188C310.07 68.7188 308.601 70.1562 306.914 71.5312C305.289 72.8438 303.507 73.9062 301.57 74.7188C306.57 74.5938 310.476 75.9062 313.289 78.6562C316.101 81.3438 317.695 85.8125 318.07 92.0625C318.195 95.25 317.914 98.4688 317.226 101.719C316.539 104.906 315.945 107.906 315.445 110.719C314.945 113.594 314.757 116.156 314.882 118.406C315.007 120.719 315.945 122.531 317.695 123.844C319.382 125.156 321.039 125.938 322.664 126.188C324.351 126.5 325.914 126.375 327.351 125.812C328.789 125.312 330.039 124.438 331.101 123.188C332.226 121.938 333.101 120.469 333.726 118.781C334.289 117.094 334.539 115.625 334.476 114.375C334.414 113.188 334.132 112.188 333.632 111.375C333.132 110.625 332.476 110.062 331.664 109.688C330.914 109.312 330.101 109.125 329.226 109.125C327.476 109.125 325.914 109.781 324.539 111.094C323.164 112.406 322.414 114.125 322.289 116.25C322.226 117 322.32 117.625 322.57 118.125C322.82 118.625 323.132 119 323.507 119.25C323.945 119.562 324.382 119.781 324.82 119.906C325.32 120.031 325.789 120.031 326.226 119.906C327.039 119.781 327.851 119.312 328.664 118.5C329.539 117.688 329.945 116.719 329.882 115.594C329.507 115.844 329.039 116.062 328.476 116.25C327.914 116.5 327.382 116.625 326.882 116.625C326.445 116.625 326.039 116.469 325.664 116.156C325.351 115.906 325.195 115.406 325.195 114.656C325.195 113.781 325.507 113.094 326.132 112.594C326.82 112.156 327.57 111.938 328.382 111.938C329.195 111.938 329.945 112.188 330.632 112.688C331.32 113.25 331.664 114.062 331.664 115.125C331.726 117.188 331.039 118.906 329.601 120.281C328.226 121.719 326.601 122.438 324.726 122.438C323.351 122.438 322.257 122.031 321.445 121.219C320.695 120.469 320.164 119.5 319.851 118.312C319.601 117.188 319.601 115.938 319.851 114.562C320.164 113.188 320.726 111.906 321.539 110.719C322.351 109.594 323.414 108.625 324.726 107.812C326.101 107.062 327.726 106.688 329.601 106.688C330.914 106.688 332.007 106.938 332.882 107.438C333.757 107.938 334.445 108.562 334.945 109.312C335.507 110.125 335.914 111 336.164 111.938C336.414 112.875 336.539 113.812 336.539 114.75C336.601 116.562 336.351 118.281 335.789 119.906C335.226 121.594 334.382 123.094 333.257 124.406C332.132 125.719 330.726 126.75 329.039 127.5C327.351 128.312 325.414 128.719 323.226 128.719Z" fill="#00FFC2"/>
<path d="M10.25 42.9062V54.25H3.40625V68.1719H10.25V91.5625C10.25 101.781 16.0156 106 30.6406 106C34.2969 106 36.7344 105.672 38.5625 105.297V91.9844C37.4375 92.1719 36.7344 92.2188 35.2812 92.2188C31.3438 92.2188 29.4688 90.5312 29.4688 87.2969V68.1719H38.5625V54.25H29.4688V42.9062H10.25ZM52.7262 106.75C58.7262 106.75 65.0075 104.125 67.7262 99.0625H68.1012V106H86.8512V70.6094C86.8512 60.1094 77.2419 52.9375 62.8981 52.9375C47.8044 52.9375 38.4294 59.9219 37.9606 70.9844H55.1169C55.3981 68.3594 57.9294 66.2031 61.8669 66.2031C65.4762 66.2031 68.1012 68.0781 68.1012 71.5469V74.0781L56.7575 74.7812C42.9294 75.625 35.2887 81.0156 35.2887 90.9531C35.2887 100.281 43.3044 106.75 52.7262 106.75ZM59.8981 93.9062C56.5231 93.9062 54.2262 92.2656 54.2262 89.4531C54.2262 86.9219 56.2887 85.1875 59.945 84.9062L68.1012 84.3438V87.7188C68.1012 91.5156 64.1637 93.9062 59.8981 93.9062ZM85.5462 70.3281C85.5462 78.3438 90.9369 83.9219 101.202 85.7969L110.577 87.5312C114.937 88.3281 116.437 89.3594 116.437 91.2344C116.437 93.3906 114.14 94.75 110.437 94.75C106.124 94.75 103.593 92.7812 102.937 89.5469H84.3744C85.265 100.141 94.1244 107.312 110.437 107.312C125.437 107.312 135.468 100.281 135.468 89.0312C135.468 81.2031 130.452 76.8906 119.249 74.8281L109.874 73.0938C105.187 72.2031 103.921 71.0781 103.921 69.25C103.921 66.9062 106.265 65.5 109.734 65.5C113.859 65.5 116.249 67.8438 116.484 70.9844H133.921C133.687 59.9219 124.827 52.9375 109.734 52.9375C94.6869 52.9375 85.5462 59.5469 85.5462 70.3281ZM137.585 42.9062V54.25H130.741V68.1719H137.585V91.5625C137.585 101.781 143.351 106 157.976 106C161.632 106 164.069 105.672 165.897 105.297V91.9844C164.772 92.1719 164.069 92.2188 162.616 92.2188C158.679 92.2188 156.804 90.5312 156.804 87.2969V68.1719H165.897V54.25H156.804V42.9062H137.585ZM198.717 89.2188C197.592 92.3125 194.452 94.1406 190.561 94.1406C185.405 94.1406 181.749 90.4844 181.749 85.4219V84.2031H216.061V79C216.061 63.1562 205.702 52.9375 189.671 52.9375C173.405 52.9375 163.233 63.4844 163.233 80.4062C163.233 97.2344 173.311 107.312 190.28 107.312C204.483 107.312 214.233 100.375 215.827 89.2188H198.717ZM190.092 66.1562C194.592 66.1562 197.827 69.1562 198.155 73.7969H182.03C182.405 69.3438 185.733 66.1562 190.092 66.1562Z" fill="#29011E"/>
<path d="M10.25 42.9062V54.25H3.40625V68.1719H10.25V91.5625C10.25 101.781 16.0156 106 30.6406 106C34.2969 106 36.7344 105.672 38.5625 105.297V91.9844C37.4375 92.1719 36.7344 92.2188 35.2812 92.2188C31.3438 92.2188 29.4688 90.5312 29.4688 87.2969V68.1719H38.5625V54.25H29.4688V42.9062H10.25ZM52.7262 106.75C58.7262 106.75 65.0075 104.125 67.7262 99.0625H68.1012V106H86.8512V70.6094C86.8512 60.1094 77.2419 52.9375 62.8981 52.9375C47.8044 52.9375 38.4294 59.9219 37.9606 70.9844H55.1169C55.3981 68.3594 57.9294 66.2031 61.8669 66.2031C65.4762 66.2031 68.1012 68.0781 68.1012 71.5469V74.0781L56.7575 74.7812C42.9294 75.625 35.2887 81.0156 35.2887 90.9531C35.2887 100.281 43.3044 106.75 52.7262 106.75ZM59.8981 93.9062C56.5231 93.9062 54.2262 92.2656 54.2262 89.4531C54.2262 86.9219 56.2887 85.1875 59.945 84.9062L68.1012 84.3438V87.7188C68.1012 91.5156 64.1637 93.9062 59.8981 93.9062ZM85.5462 70.3281C85.5462 78.3438 90.9369 83.9219 101.202 85.7969L110.577 87.5312C114.937 88.3281 116.437 89.3594 116.437 91.2344C116.437 93.3906 114.14 94.75 110.437 94.75C106.124 94.75 103.593 92.7812 102.937 89.5469H84.3744C85.265 100.141 94.1244 107.312 110.437 107.312C125.437 107.312 135.468 100.281 135.468 89.0312C135.468 81.2031 130.452 76.8906 119.249 74.8281L109.874 73.0938C105.187 72.2031 103.921 71.0781 103.921 69.25C103.921 66.9062 106.265 65.5 109.734 65.5C113.859 65.5 116.249 67.8438 116.484 70.9844H133.921C133.687 59.9219 124.827 52.9375 109.734 52.9375C94.6869 52.9375 85.5462 59.5469 85.5462 70.3281ZM137.585 42.9062V54.25H130.741V68.1719H137.585V91.5625C137.585 101.781 143.351 106 157.976 106C161.632 106 164.069 105.672 165.897 105.297V91.9844C164.772 92.1719 164.069 92.2188 162.616 92.2188C158.679 92.2188 156.804 90.5312 156.804 87.2969V68.1719H165.897V54.25H156.804V42.9062H137.585ZM198.717 89.2188C197.592 92.3125 194.452 94.1406 190.561 94.1406C185.405 94.1406 181.749 90.4844 181.749 85.4219V84.2031H216.061V79C216.061 63.1562 205.702 52.9375 189.671 52.9375C173.405 52.9375 163.233 63.4844 163.233 80.4062C163.233 97.2344 173.311 107.312 190.28 107.312C204.483 107.312 214.233 100.375 215.827 89.2188H198.717ZM190.092 66.1562C194.592 66.1562 197.827 69.1562 198.155 73.7969H182.03C182.405 69.3438 185.733 66.1562 190.092 66.1562Z" fill="url(#paint0_radial)" fill-opacity="0.03"/>
<path d="M214.406 104.531C215.844 104.031 217.031 103.375 217.969 102.562C218.906 101.75 219.625 100.938 220.125 100.125C220.75 99.1875 221.156 98.2188 221.344 97.2188C222.719 90.8438 223.406 84.7812 223.406 79.0312C223.406 73.2188 222.969 68.25 222.094 64.125C221.844 62.8125 221.375 61.5938 220.688 60.4688C220.125 59.5312 219.344 58.6562 218.344 57.8438C217.344 56.9688 216.062 56.4062 214.5 56.1562L214.406 54.6562C215.656 54.7812 216.812 54.875 217.875 54.9375C219 54.9375 219.969 54.9375 220.781 54.9375H223.406C224.156 55 224.906 55.0312 225.656 55.0312C226.344 55.0938 227.031 55.125 227.719 55.125C228.469 55.125 229.188 55.1875 229.875 55.3125C229.688 57.5625 229.531 59.875 229.406 62.25C229.281 64.5625 229.188 66.6562 229.125 68.5312C229 70.7188 228.938 72.8438 228.938 74.9062C228.812 77.2188 228.719 79.75 228.656 82.5C228.594 85.1875 228.625 87.75 228.75 90.1875C228.875 92.625 229.094 94.7812 229.406 96.6562C229.719 98.4688 230.219 99.6562 230.906 100.219C231.281 100.469 231.781 100.719 232.406 100.969C232.906 101.219 233.562 101.469 234.375 101.719C235.25 101.969 236.312 102.219 237.562 102.469L237.656 104.062C236.406 104 235.188 104 234 104.062C232.875 104.062 231.875 104.062 231 104.062C229.938 104.125 228.938 104.156 228 104.156C226.688 104.219 225.281 104.344 223.781 104.531C222.531 104.656 221.125 104.812 219.562 105C218 105.188 216.5 105.406 215.062 105.656L214.406 104.531ZM224.062 48.375C222.125 48.5 220.625 48.0625 219.562 47.0625C218.5 46 217.906 44.8125 217.781 43.5C217.656 42.1875 218 40.9688 218.812 39.8438C219.688 38.6562 221.062 37.9375 222.938 37.6875C224.875 37.4375 226.406 37.8438 227.531 38.9062C228.719 39.9688 229.406 41.1875 229.594 42.5625C229.781 43.875 229.438 45.1562 228.562 46.4062C227.688 47.5938 226.188 48.25 224.062 48.375ZM247.222 69.6562C247.972 67.3438 249.035 65.0312 250.41 62.7188C251.785 60.4062 253.347 58.3438 255.097 56.5312C256.91 54.6562 258.847 53.1875 260.91 52.125C263.035 51.0625 265.222 50.5938 267.472 50.7188C269.535 50.9062 271.222 51.8125 272.535 53.4375C273.91 55.0625 275.004 57 275.816 59.25C276.629 61.4375 277.16 63.7188 277.41 66.0938C277.722 68.4062 277.847 70.3438 277.785 71.9062C277.66 73.8438 277.254 75.7188 276.566 77.5312C275.941 79.2812 275.222 81.0625 274.41 82.875C273.66 84.625 272.941 86.4375 272.254 88.3125C271.566 90.1875 271.16 92.1562 271.035 94.2188C270.91 96.2812 271.129 98.25 271.691 100.125C272.316 101.938 273.191 103.344 274.316 104.344C275.441 105.344 276.754 105.75 278.254 105.562C279.816 105.438 281.41 104.375 283.035 102.375L284.254 103.406C283.629 104.469 282.597 105.5 281.16 106.5C279.722 107.562 278.035 108.094 276.097 108.094C274.785 108.094 273.472 107.812 272.16 107.25C270.91 106.75 269.754 105.938 268.691 104.812C267.691 103.625 266.847 102.125 266.16 100.312C265.535 98.5 265.191 96.2812 265.129 93.6562C265.129 91.4688 265.41 89.4375 265.972 87.5625C266.535 85.6875 267.129 83.8125 267.754 81.9375C268.441 80.0625 269.035 78.125 269.535 76.125C270.097 74.0625 270.347 71.7812 270.285 69.2812C270.16 66.9688 269.785 65.0938 269.16 63.6562C268.597 62.1562 267.879 61.0312 267.004 60.2812C266.191 59.4688 265.285 58.9688 264.285 58.7812C263.347 58.5312 262.472 58.4688 261.66 58.5938C259.972 58.9062 258.254 59.875 256.504 61.5C254.754 63.0625 253.16 65.0625 251.722 67.5C250.347 69.875 249.222 72.5938 248.347 75.6562C247.472 78.7188 247.004 81.8438 246.941 85.0312V84.8438C246.941 86.4062 246.91 87.7812 246.847 88.9688C246.785 90.1562 246.816 91.1562 246.941 91.9688C246.941 93.7812 247.097 95.2188 247.41 96.2812C247.785 97.2812 248.191 98.0625 248.629 98.625C249.066 99.1875 249.535 99.5938 250.035 99.8438C250.597 100.031 251.066 100.156 251.441 100.219L251.347 101.906C250.472 101.719 249.347 101.625 247.972 101.625C246.66 101.562 245.222 101.625 243.66 101.812C242.097 102 240.472 102.344 238.785 102.844C237.16 103.344 235.66 104.031 234.285 104.906L233.629 103.594C234.566 102.844 235.379 102.188 236.066 101.625C236.816 101 237.441 100.219 237.941 99.2812C238.504 98.3438 238.972 97.125 239.347 95.625C239.722 94.125 240.004 92.1562 240.191 89.7188C240.566 84.7812 240.816 79.9375 240.941 75.1875C241.066 70.375 240.941 65.9062 240.566 61.7812C240.441 60.4688 240.097 59.4688 239.535 58.7812C239.035 58.0938 238.41 57.625 237.66 57.375C236.91 57.0625 236.129 56.9062 235.316 56.9062C234.504 56.9062 233.722 56.9375 232.972 57L232.879 55.4062C234.254 55.2812 235.66 55.125 237.097 54.9375C238.597 54.75 240.035 54.5625 241.41 54.375C242.785 54.1875 244.004 54 245.066 53.8125C246.191 53.5625 247.066 53.2812 247.691 52.9688C247.566 54.9688 247.472 56.9688 247.41 58.9688C247.41 60.9062 247.379 62.6875 247.316 64.3125C247.254 66.1875 247.222 67.9688 247.222 69.6562ZM325.226 128.719C323.039 128.719 320.882 128.375 318.757 127.688C316.632 127 314.789 125.844 313.226 124.219C311.664 122.656 310.507 120.531 309.757 117.844C309.007 115.219 308.914 111.938 309.476 108C309.914 105 310.257 102.062 310.507 99.1875C310.82 96.25 310.914 93.5625 310.789 91.125C310.664 88.625 310.226 86.4375 309.476 84.5625C308.726 82.625 307.507 81.125 305.82 80.0625C304.257 79 302.226 78.375 299.726 78.1875C297.226 78 294.195 78.4375 290.632 79.5C290.757 82.1875 290.914 84.7188 291.101 87.0938C291.351 89.4688 291.632 91.5938 291.945 93.4688C292.132 95.3438 292.476 96.9688 292.976 98.3438C293.351 99.5312 293.882 100.594 294.57 101.531C295.257 102.469 296.132 102.812 297.195 102.562L296.539 104.906C295.289 104.469 293.851 104.156 292.226 103.969C290.664 103.781 288.976 103.75 287.164 103.875C285.351 104 283.476 104.281 281.539 104.719C279.664 105.156 277.851 105.812 276.101 106.688L275.632 105.094C276.57 104.406 277.414 103.781 278.164 103.219C278.914 102.656 279.57 101.938 280.132 101.062C280.757 100.188 281.289 99.0625 281.726 97.6875C282.164 96.3125 282.539 94.4688 282.851 92.1562C283.164 89.8438 283.539 86.8438 283.976 83.1562C284.476 79.4062 284.914 75.375 285.289 71.0625C285.664 66.75 285.914 62.3125 286.039 57.75C286.164 53.1875 286.039 48.9375 285.664 45C285.289 42.0625 284.726 39.4062 283.976 37.0312C283.664 36.0312 283.257 35.0625 282.757 34.125C282.32 33.125 281.789 32.25 281.164 31.5C280.539 30.6875 279.82 30.0313 279.007 29.5312C278.257 29.0312 277.414 28.75 276.476 28.6875V27.2812C277.664 27.4688 279.007 27.6875 280.507 27.9375C282.07 28.125 283.82 28.25 285.757 28.3125C287.757 28.375 289.976 28.2812 292.414 28.0312C294.914 27.7187 297.695 27.125 300.757 26.25V28.125C299.632 28.75 298.601 29.4062 297.664 30.0938C296.726 30.7187 295.851 31.625 295.039 32.8125C294.289 34 293.632 35.5625 293.07 37.5C292.507 39.4375 292.101 42 291.851 45.1875C291.539 48.1875 291.195 51.6562 290.82 55.5938C290.507 59.5312 290.351 63.5938 290.351 67.7812C290.351 69.2812 290.351 70.8125 290.351 72.375C290.351 73.875 290.414 75.375 290.539 76.875C293.539 75.8125 296.226 74.4375 298.601 72.75C300.976 71 302.976 69.2188 304.601 67.4062C306.226 65.5312 307.476 63.7188 308.351 61.9688C309.226 60.2188 309.664 58.7188 309.664 57.4688C309.539 56.5312 309.32 55.6875 309.007 54.9375C308.695 54.3125 308.226 53.75 307.601 53.25C306.976 52.6875 306.132 52.375 305.07 52.3125L305.351 49.9688C309.226 50.4688 312.945 50.6875 316.507 50.625C320.07 50.5 323.632 49.6562 327.195 48.0938L327.57 49.9688C326.632 50.4062 325.789 50.8438 325.039 51.2812C324.289 51.6562 323.57 52.125 322.882 52.6875C322.257 53.25 321.632 54 321.007 54.9375C320.382 55.8125 319.695 56.9688 318.945 58.4062C318.382 59.5938 317.632 60.9688 316.695 62.5312C315.757 64.0938 314.632 65.6562 313.32 67.2188C312.07 68.7188 310.601 70.1562 308.914 71.5312C307.289 72.8438 305.507 73.9062 303.57 74.7188C308.57 74.5938 312.476 75.9062 315.289 78.6562C318.101 81.3438 319.695 85.8125 320.07 92.0625C320.195 95.25 319.914 98.4688 319.226 101.719C318.539 104.906 317.945 107.906 317.445 110.719C316.945 113.594 316.757 116.156 316.882 118.406C317.007 120.719 317.945 122.531 319.695 123.844C321.382 125.156 323.039 125.938 324.664 126.188C326.351 126.5 327.914 126.375 329.351 125.812C330.789 125.312 332.039 124.438 333.101 123.188C334.226 121.938 335.101 120.469 335.726 118.781C336.289 117.094 336.539 115.625 336.476 114.375C336.414 113.188 336.132 112.188 335.632 111.375C335.132 110.625 334.476 110.062 333.664 109.688C332.914 109.312 332.101 109.125 331.226 109.125C329.476 109.125 327.914 109.781 326.539 111.094C325.164 112.406 324.414 114.125 324.289 116.25C324.226 117 324.32 117.625 324.57 118.125C324.82 118.625 325.132 119 325.507 119.25C325.945 119.562 326.382 119.781 326.82 119.906C327.32 120.031 327.789 120.031 328.226 119.906C329.039 119.781 329.851 119.312 330.664 118.5C331.539 117.688 331.945 116.719 331.882 115.594C331.507 115.844 331.039 116.062 330.476 116.25C329.914 116.5 329.382 116.625 328.882 116.625C328.445 116.625 328.039 116.469 327.664 116.156C327.351 115.906 327.195 115.406 327.195 114.656C327.195 113.781 327.507 113.094 328.132 112.594C328.82 112.156 329.57 111.938 330.382 111.938C331.195 111.938 331.945 112.188 332.632 112.688C333.32 113.25 333.664 114.062 333.664 115.125C333.726 117.188 333.039 118.906 331.601 120.281C330.226 121.719 328.601 122.438 326.726 122.438C325.351 122.438 324.257 122.031 323.445 121.219C322.695 120.469 322.164 119.5 321.851 118.312C321.601 117.188 321.601 115.938 321.851 114.562C322.164 113.188 322.726 111.906 323.539 110.719C324.351 109.594 325.414 108.625 326.726 107.812C328.101 107.062 329.726 106.688 331.601 106.688C332.914 106.688 334.007 106.938 334.882 107.438C335.757 107.938 336.445 108.562 336.945 109.312C337.507 110.125 337.914 111 338.164 111.938C338.414 112.875 338.539 113.812 338.539 114.75C338.601 116.562 338.351 118.281 337.789 119.906C337.226 121.594 336.382 123.094 335.257 124.406C334.132 125.719 332.726 126.75 331.039 127.5C329.351 128.312 327.414 128.719 325.226 128.719Z" fill="#29011E"/>
<path d="M214.406 104.531C215.844 104.031 217.031 103.375 217.969 102.562C218.906 101.75 219.625 100.938 220.125 100.125C220.75 99.1875 221.156 98.2188 221.344 97.2188C222.719 90.8438 223.406 84.7812 223.406 79.0312C223.406 73.2188 222.969 68.25 222.094 64.125C221.844 62.8125 221.375 61.5938 220.688 60.4688C220.125 59.5312 219.344 58.6562 218.344 57.8438C217.344 56.9688 216.062 56.4062 214.5 56.1562L214.406 54.6562C215.656 54.7812 216.812 54.875 217.875 54.9375C219 54.9375 219.969 54.9375 220.781 54.9375H223.406C224.156 55 224.906 55.0312 225.656 55.0312C226.344 55.0938 227.031 55.125 227.719 55.125C228.469 55.125 229.188 55.1875 229.875 55.3125C229.688 57.5625 229.531 59.875 229.406 62.25C229.281 64.5625 229.188 66.6562 229.125 68.5312C229 70.7188 228.938 72.8438 228.938 74.9062C228.812 77.2188 228.719 79.75 228.656 82.5C228.594 85.1875 228.625 87.75 228.75 90.1875C228.875 92.625 229.094 94.7812 229.406 96.6562C229.719 98.4688 230.219 99.6562 230.906 100.219C231.281 100.469 231.781 100.719 232.406 100.969C232.906 101.219 233.562 101.469 234.375 101.719C235.25 101.969 236.312 102.219 237.562 102.469L237.656 104.062C236.406 104 235.188 104 234 104.062C232.875 104.062 231.875 104.062 231 104.062C229.938 104.125 228.938 104.156 228 104.156C226.688 104.219 225.281 104.344 223.781 104.531C222.531 104.656 221.125 104.812 219.562 105C218 105.188 216.5 105.406 215.062 105.656L214.406 104.531ZM224.062 48.375C222.125 48.5 220.625 48.0625 219.562 47.0625C218.5 46 217.906 44.8125 217.781 43.5C217.656 42.1875 218 40.9688 218.812 39.8438C219.688 38.6562 221.062 37.9375 222.938 37.6875C224.875 37.4375 226.406 37.8438 227.531 38.9062C228.719 39.9688 229.406 41.1875 229.594 42.5625C229.781 43.875 229.438 45.1562 228.562 46.4062C227.688 47.5938 226.188 48.25 224.062 48.375ZM247.222 69.6562C247.972 67.3438 249.035 65.0312 250.41 62.7188C251.785 60.4062 253.347 58.3438 255.097 56.5312C256.91 54.6562 258.847 53.1875 260.91 52.125C263.035 51.0625 265.222 50.5938 267.472 50.7188C269.535 50.9062 271.222 51.8125 272.535 53.4375C273.91 55.0625 275.004 57 275.816 59.25C276.629 61.4375 277.16 63.7188 277.41 66.0938C277.722 68.4062 277.847 70.3438 277.785 71.9062C277.66 73.8438 277.254 75.7188 276.566 77.5312C275.941 79.2812 275.222 81.0625 274.41 82.875C273.66 84.625 272.941 86.4375 272.254 88.3125C271.566 90.1875 271.16 92.1562 271.035 94.2188C270.91 96.2812 271.129 98.25 271.691 100.125C272.316 101.938 273.191 103.344 274.316 104.344C275.441 105.344 276.754 105.75 278.254 105.562C279.816 105.438 281.41 104.375 283.035 102.375L284.254 103.406C283.629 104.469 282.597 105.5 281.16 106.5C279.722 107.562 278.035 108.094 276.097 108.094C274.785 108.094 273.472 107.812 272.16 107.25C270.91 106.75 269.754 105.938 268.691 104.812C267.691 103.625 266.847 102.125 266.16 100.312C265.535 98.5 265.191 96.2812 265.129 93.6562C265.129 91.4688 265.41 89.4375 265.972 87.5625C266.535 85.6875 267.129 83.8125 267.754 81.9375C268.441 80.0625 269.035 78.125 269.535 76.125C270.097 74.0625 270.347 71.7812 270.285 69.2812C270.16 66.9688 269.785 65.0938 269.16 63.6562C268.597 62.1562 267.879 61.0312 267.004 60.2812C266.191 59.4688 265.285 58.9688 264.285 58.7812C263.347 58.5312 262.472 58.4688 261.66 58.5938C259.972 58.9062 258.254 59.875 256.504 61.5C254.754 63.0625 253.16 65.0625 251.722 67.5C250.347 69.875 249.222 72.5938 248.347 75.6562C247.472 78.7188 247.004 81.8438 246.941 85.0312V84.8438C246.941 86.4062 246.91 87.7812 246.847 88.9688C246.785 90.1562 246.816 91.1562 246.941 91.9688C246.941 93.7812 247.097 95.2188 247.41 96.2812C247.785 97.2812 248.191 98.0625 248.629 98.625C249.066 99.1875 249.535 99.5938 250.035 99.8438C250.597 100.031 251.066 100.156 251.441 100.219L251.347 101.906C250.472 101.719 249.347 101.625 247.972 101.625C246.66 101.562 245.222 101.625 243.66 101.812C242.097 102 240.472 102.344 238.785 102.844C237.16 103.344 235.66 104.031 234.285 104.906L233.629 103.594C234.566 102.844 235.379 102.188 236.066 101.625C236.816 101 237.441 100.219 237.941 99.2812C238.504 98.3438 238.972 97.125 239.347 95.625C239.722 94.125 240.004 92.1562 240.191 89.7188C240.566 84.7812 240.816 79.9375 240.941 75.1875C241.066 70.375 240.941 65.9062 240.566 61.7812C240.441 60.4688 240.097 59.4688 239.535 58.7812C239.035 58.0938 238.41 57.625 237.66 57.375C236.91 57.0625 236.129 56.9062 235.316 56.9062C234.504 56.9062 233.722 56.9375 232.972 57L232.879 55.4062C234.254 55.2812 235.66 55.125 237.097 54.9375C238.597 54.75 240.035 54.5625 241.41 54.375C242.785 54.1875 244.004 54 245.066 53.8125C246.191 53.5625 247.066 53.2812 247.691 52.9688C247.566 54.9688 247.472 56.9688 247.41 58.9688C247.41 60.9062 247.379 62.6875 247.316 64.3125C247.254 66.1875 247.222 67.9688 247.222 69.6562ZM325.226 128.719C323.039 128.719 320.882 128.375 318.757 127.688C316.632 127 314.789 125.844 313.226 124.219C311.664 122.656 310.507 120.531 309.757 117.844C309.007 115.219 308.914 111.938 309.476 108C309.914 105 310.257 102.062 310.507 99.1875C310.82 96.25 310.914 93.5625 310.789 91.125C310.664 88.625 310.226 86.4375 309.476 84.5625C308.726 82.625 307.507 81.125 305.82 80.0625C304.257 79 302.226 78.375 299.726 78.1875C297.226 78 294.195 78.4375 290.632 79.5C290.757 82.1875 290.914 84.7188 291.101 87.0938C291.351 89.4688 291.632 91.5938 291.945 93.4688C292.132 95.3438 292.476 96.9688 292.976 98.3438C293.351 99.5312 293.882 100.594 294.57 101.531C295.257 102.469 296.132 102.812 297.195 102.562L296.539 104.906C295.289 104.469 293.851 104.156 292.226 103.969C290.664 103.781 288.976 103.75 287.164 103.875C285.351 104 283.476 104.281 281.539 104.719C279.664 105.156 277.851 105.812 276.101 106.688L275.632 105.094C276.57 104.406 277.414 103.781 278.164 103.219C278.914 102.656 279.57 101.938 280.132 101.062C280.757 100.188 281.289 99.0625 281.726 97.6875C282.164 96.3125 282.539 94.4688 282.851 92.1562C283.164 89.8438 283.539 86.8438 283.976 83.1562C284.476 79.4062 284.914 75.375 285.289 71.0625C285.664 66.75 285.914 62.3125 286.039 57.75C286.164 53.1875 286.039 48.9375 285.664 45C285.289 42.0625 284.726 39.4062 283.976 37.0312C283.664 36.0312 283.257 35.0625 282.757 34.125C282.32 33.125 281.789 32.25 281.164 31.5C280.539 30.6875 279.82 30.0313 279.007 29.5312C278.257 29.0312 277.414 28.75 276.476 28.6875V27.2812C277.664 27.4688 279.007 27.6875 280.507 27.9375C282.07 28.125 283.82 28.25 285.757 28.3125C287.757 28.375 289.976 28.2812 292.414 28.0312C294.914 27.7187 297.695 27.125 300.757 26.25V28.125C299.632 28.75 298.601 29.4062 297.664 30.0938C296.726 30.7187 295.851 31.625 295.039 32.8125C294.289 34 293.632 35.5625 293.07 37.5C292.507 39.4375 292.101 42 291.851 45.1875C291.539 48.1875 291.195 51.6562 290.82 55.5938C290.507 59.5312 290.351 63.5938 290.351 67.7812C290.351 69.2812 290.351 70.8125 290.351 72.375C290.351 73.875 290.414 75.375 290.539 76.875C293.539 75.8125 296.226 74.4375 298.601 72.75C300.976 71 302.976 69.2188 304.601 67.4062C306.226 65.5312 307.476 63.7188 308.351 61.9688C309.226 60.2188 309.664 58.7188 309.664 57.4688C309.539 56.5312 309.32 55.6875 309.007 54.9375C308.695 54.3125 308.226 53.75 307.601 53.25C306.976 52.6875 306.132 52.375 305.07 52.3125L305.351 49.9688C309.226 50.4688 312.945 50.6875 316.507 50.625C320.07 50.5 323.632 49.6562 327.195 48.0938L327.57 49.9688C326.632 50.4062 325.789 50.8438 325.039 51.2812C324.289 51.6562 323.57 52.125 322.882 52.6875C322.257 53.25 321.632 54 321.007 54.9375C320.382 55.8125 319.695 56.9688 318.945 58.4062C318.382 59.5938 317.632 60.9688 316.695 62.5312C315.757 64.0938 314.632 65.6562 313.32 67.2188C312.07 68.7188 310.601 70.1562 308.914 71.5312C307.289 72.8438 305.507 73.9062 303.57 74.7188C308.57 74.5938 312.476 75.9062 315.289 78.6562C318.101 81.3438 319.695 85.8125 320.07 92.0625C320.195 95.25 319.914 98.4688 319.226 101.719C318.539 104.906 317.945 107.906 317.445 110.719C316.945 113.594 316.757 116.156 316.882 118.406C317.007 120.719 317.945 122.531 319.695 123.844C321.382 125.156 323.039 125.938 324.664 126.188C326.351 126.5 327.914 126.375 329.351 125.812C330.789 125.312 332.039 124.438 333.101 123.188C334.226 121.938 335.101 120.469 335.726 118.781C336.289 117.094 336.539 115.625 336.476 114.375C336.414 113.188 336.132 112.188 335.632 111.375C335.132 110.625 334.476 110.062 333.664 109.688C332.914 109.312 332.101 109.125 331.226 109.125C329.476 109.125 327.914 109.781 326.539 111.094C325.164 112.406 324.414 114.125 324.289 116.25C324.226 117 324.32 117.625 324.57 118.125C324.82 118.625 325.132 119 325.507 119.25C325.945 119.562 326.382 119.781 326.82 119.906C327.32 120.031 327.789 120.031 328.226 119.906C329.039 119.781 329.851 119.312 330.664 118.5C331.539 117.688 331.945 116.719 331.882 115.594C331.507 115.844 331.039 116.062 330.476 116.25C329.914 116.5 329.382 116.625 328.882 116.625C328.445 116.625 328.039 116.469 327.664 116.156C327.351 115.906 327.195 115.406 327.195 114.656C327.195 113.781 327.507 113.094 328.132 112.594C328.82 112.156 329.57 111.938 330.382 111.938C331.195 111.938 331.945 112.188 332.632 112.688C333.32 113.25 333.664 114.062 333.664 115.125C333.726 117.188 333.039 118.906 331.601 120.281C330.226 121.719 328.601 122.438 326.726 122.438C325.351 122.438 324.257 122.031 323.445 121.219C322.695 120.469 322.164 119.5 321.851 118.312C321.601 117.188 321.601 115.938 321.851 114.562C322.164 113.188 322.726 111.906 323.539 110.719C324.351 109.594 325.414 108.625 326.726 107.812C328.101 107.062 329.726 106.688 331.601 106.688C332.914 106.688 334.007 106.938 334.882 107.438C335.757 107.938 336.445 108.562 336.945 109.312C337.507 110.125 337.914 111 338.164 111.938C338.414 112.875 338.539 113.812 338.539 114.75C338.601 116.562 338.351 118.281 337.789 119.906C337.226 121.594 336.382 123.094 335.257 124.406C334.132 125.719 332.726 126.75 331.039 127.5C329.351 128.312 327.414 128.719 325.226 128.719Z" fill="url(#paint1_radial)" fill-opacity="0.03"/>
<defs>
<radialGradient id="paint0_radial" cx="0" cy="0" r="1" gradientUnits="userSpaceOnUse" gradientTransform="translate(102 34) rotate(37.1169) scale(139.201 209.769)">
<stop stop-color="white"/>
<stop offset="1" stop-color="white" stop-opacity="0"/>
</radialGradient>
<radialGradient id="paint1_radial" cx="0" cy="0" r="1" gradientUnits="userSpaceOnUse" gradientTransform="translate(265.074 40) rotate(55.4675) scale(101.966 149.124)">
<stop stop-color="white"/>
<stop offset="1" stop-color="white" stop-opacity="0"/>
</radialGradient>
</defs>
</svg>
